<?xml version="1.0" encoding="UTF-8" standalone="no"?>
<svg width="1082px" height="270px" viewBox="0 0 1082 270" version="1.1" xmlns="http://www.w3.org/2000/svg" xmlns:xlink="http://www.w3.org/1999/xlink">
    <!-- Generator: Sketch 40.1 (33804) - http://www.bohemiancoding.com/sketch -->
    <title>banner</title>
    <desc>Created with Sketch.</desc>
    <defs></defs>
    <g id="UI-KIT" stroke="none" stroke-width="1" fill="none" fill-rule="evenodd">
        <g id="banner">
            <g id="Group-5" transform="translate(0.000000, -7.000000)">
                <rect id="Rectangle" fill="#1D1D1D" x="1024" y="42" width="18.3691406" height="4"></rect>
                <rect id="Rectangle-Copy-3" fill="#1D1D1D" x="1016" y="42" width="4.87841797" height="4"></rect>
                <rect id="Rectangle-Copy" fill="#1D1D1D" x="1024" y="49" width="16.3691406" height="4"></rect>
                <rect id="Rectangle-Copy-4" fill="#1D1D1D" x="1016" y="49" width="4.87841797" height="4"></rect>
                <rect id="Rectangle-Copy-2" fill="#1D1D1D" x="1024" y="56" width="14.3691406" height="4"></rect>
                <rect id="Rectangle-Copy-5" fill="#1D1D1D" x="1016" y="56" width="4.87841797" height="4"></rect>
                <circle id="Oval" fill="#0056FF" cx="1015.5" cy="62.5" r="11.5"></circle>
                <text id="2" font-family=".AppleSystemUIFont" font-size="16" font-weight="normal" fill="#FFFFFF">
                    <tspan x="1011.32422" y="67">2</tspan>
                </text>
                <rect id="Rectangle-5" fill="#0056FF" x="0" y="7" width="1082" height="270"></rect>
                <path d="M1027.35343,90.5793023 C1048.65645,77.7791569 1055.54939,50.1330797 1042.74924,28.8300604 C1029.9491,7.52704112 1002.30302,0.634099886 981,13.4342452" id="Oval-2" stroke="#FFFFFF" stroke-width="16" opacity="0.2"></path>
                <path d="M598.353427,83.5793023 C619.656446,70.7791569 626.549387,43.1330797 613.749242,21.8300604 C600.949097,0.527041123 573.303019,-6.36590011 552,6.43424523" id="Oval-2-Copy-2" stroke="#FFFFFF" stroke-width="16" opacity="0.2"></path>
                <path d="M159.788552,104.228875 C181.091571,91.4287294 187.984513,63.7826521 175.184367,42.4796328 C162.384222,21.1766135 134.738145,14.2836723 113.435125,27.0838177" id="Oval-2-Copy-4" stroke="#FFFFFF" stroke-width="16" opacity="0.2" transform="translate(147.526869, 62.439224) rotate(-79.000000) translate(-147.526869, -62.439224) "></path>
                <path d="M815.6382,209.681274 C836.941219,196.881129 843.834161,169.235051 831.034015,147.932032 C818.23387,126.629013 790.587793,119.736072 769.284773,132.536217" id="Oval-2-Copy" stroke="#FFFFFF" stroke-width="16" opacity="0.2" transform="translate(803.376517, 167.891623) rotate(217.000000) translate(-803.376517, -167.891623) "></path>
                <path d="M697.6382,309.681274 C718.941219,296.881129 725.834161,269.235051 713.034015,247.932032 C700.23387,226.629013 672.587793,219.736072 651.284773,232.536217" id="Oval-2-Copy-5" stroke="#FFFFFF" stroke-width="16" opacity="0.2" transform="translate(685.376517, 267.891623) rotate(217.000000) translate(-685.376517, -267.891623) "></path>
                <path d="M374.6382,219.681274 C395.941219,206.881129 402.834161,179.235051 390.034015,157.932032 C377.23387,136.629013 349.587793,129.736072 328.284773,142.536217" id="Oval-2-Copy-3" stroke="#FFFFFF" stroke-width="16" opacity="0.2" transform="translate(362.376517, 177.891623) rotate(217.000000) translate(-362.376517, -177.891623) "></path>
                <polygon id="Rectangle-6" fill="#FFFFFF" opacity="0.2" points="928 51 946 51 896 144 878 144"></polygon>
                <polygon id="Rectangle-6-Copy-3" fill="#FFFFFF" opacity="0.2" points="486 51 504 51 454 144 436 144"></polygon>
                <polygon id="Rectangle-6-Copy-6" fill="#FFFFFF" opacity="0.2" transform="translate(80.133170, 129.247943) rotate(-79.000000) translate(-80.133170, -129.247943) " points="96.1331699 82.7479425 114.13317 82.7479425 64.1331699 175.747943 46.1331699 175.747943"></polygon>
                <polygon id="Rectangle-6-Copy" fill="#FFFFFF" opacity="0.2" transform="translate(721.602115, 66.658256) rotate(182.000000) translate(-721.602115, -66.658256) " points="737.602115 20.1582563 755.602115 20.1582563 705.602115 113.158256 687.602115 113.158256"></polygon>
                <polygon id="Rectangle-6-Copy-4" fill="#FFFFFF" opacity="0.2" transform="translate(279.404780, 66.867480) rotate(207.000000) translate(-279.404780, -66.867480) " points="295.40478 20.3674804 313.40478 20.3674804 263.40478 113.36748 245.40478 113.36748"></polygon>
                <polygon id="Rectangle-6-Copy-2" fill="#FFFFFF" opacity="0.2" transform="translate(972.451491, 197.474881) rotate(238.000000) translate(-972.451491, -197.474881) " points="988.451491 150.974881 1006.45149 150.974881 956.451491 243.974881 938.451491 243.974881"></polygon>
                <polygon id="Rectangle-6-Copy-5" fill="#FFFFFF" opacity="0.2" transform="translate(504.451491, 185.474881) rotate(238.000000) translate(-504.451491, -185.474881) " points="520.451491 138.974881 538.451491 138.974881 488.451491 231.974881 470.451491 231.974881"></polygon>
                <polygon id="Rectangle-6-Copy-7" fill="#FFFFFF" opacity="0.2" transform="translate(182.794048, 239.028452) rotate(-189.000000) translate(-182.794048, -239.028452) " points="201.146989 192.528452 221.794048 192.528452 164.441107 285.528452 143.794048 285.528452"></polygon>
            </g>
        </g>
    </g>
</svg>