<?xml version="1.0" encoding="UTF-8" standalone="no"?>
<svg width="12px" height="12px" viewBox="0 0 8 8" version="1.1" xmlns="http://www.w3.org/2000/svg" xmlns:xlink="http://www.w3.org/1999/xlink">
    <g id="Page-1" stroke="none" stroke-width="1" fill="none" fill-rule="evenodd">
        <path d="M5.53780181,4.08233276 L7.70151708,6.24585477 C8.09949431,6.64379646 8.09949431,7.28987993 7.70151708,7.68782161 L7.68665011,7.70154374 C7.28867289,8.09948542 6.64367531,8.09948542 6.24569808,7.70154374 L4.08198281,5.53802173 C4.03623831,5.4922813 3.96304709,5.4922813 3.91844619,5.53802173 L1.75358731,7.70154374 C1.35561008,8.09948542 0.710612509,8.09948542 0.312635282,7.70154374 L0.297768316,7.6866781 C-0.0990652982,7.28873642 -0.0990652982,6.64379646 0.298911929,6.24585477 L2.4626272,4.08233276 C2.5072281,4.03659234 2.5072281,3.96340766 2.4626272,3.91881075 L0.298911929,1.75414523 C-0.100208911,1.35620354 -0.0990652982,0.711263579 0.298911929,0.313321898 L0.313778894,0.298456261 C0.711756122,-0.0994854202 1.3567537,-0.0994854202 1.75358731,0.298456261 L3.91844619,2.46312178 C3.96304709,2.5077187 4.03623831,2.5077187 4.08198281,2.46312178 L6.24569808,0.298456261 C6.64367531,-0.0994854202 7.2898165,-0.0994854202 7.68779373,0.299599771 L7.70151708,0.313321898 C8.09949431,0.711263579 8.09949431,1.35620354 7.70151708,1.75414523 L5.53780181,3.91881075 C5.49320091,3.96340766 5.49320091,4.03659234 5.53780181,4.08233276 L5.53780181,4.08233276 Z" id="Path" fill="#000000"></path>
    </g>
</svg>
