<?xml version="1.0" encoding="UTF-8" standalone="no"?>
<svg viewBox="0 0 1190 600" version="1.1" xmlns="http://www.w3.org/2000/svg" xmlns:xlink="http://www.w3.org/1999/xlink" preserveAspectRatio="xMinYMin meet">
    <!-- Generator: Sketch 40 (33762) - http://www.bohemiancoding.com/sketch -->
    <title>04_STRAIGHT</title>
    <desc>Created with Sketch.</desc>
    <defs></defs>
    <g id="Page-1" stroke="none" stroke-width="1" fill="none" fill-rule="evenodd">
        <g id="Desktop-HD-Copy-15" transform="translate(-250.000000, -2150.000000)">
            <g id="PRINCIPLES" transform="translate(248.000000, 350.000000)">
                <g id="04_STRAIGHT" transform="translate(2.000000, 1800.000000)">
                    <g id="Illustration_Straight">
                        <path d="M0.5,265.495592 L1202.203,265.867876" id="Stroke-5" stroke="#C1C4CA" stroke-linecap="square"></path>
                        <polyline id="Stroke-7" stroke="#C1C4CA" stroke-linecap="square" points="0.5 331.734243 675.5 331.947143 839.5 264.623476 1006.167 332.051972 1202.203 332.114653"></polyline>
                        <polyline id="Stroke-9" stroke="#C1C4CA" stroke-linecap="square" points="0.5 399.046664 675.5 399.256074 838.833 264.623793 1005.501 399.357606 1202.203 399.418948"></polyline>
                        <polyline id="Stroke-11" stroke="#C1C4CA" stroke-linecap="square" points="0.5 465.293441 676.167 465.502851 838.834 264.976405 1005.5 465.604383 1202.203 465.665725"></polyline>
                        <polyline id="Stroke-13" stroke="#C1C4CA" stroke-linecap="square" points="0.5 531.540219 675.5 531.74857 839.5 264.976828 1005.5 531.85116 1202.203 531.912502"></polyline>
                        <polyline id="Stroke-15" stroke="#C1C4CA" stroke-linecap="square" points="0.5 598.844513 676.167 599.053923 839.5 265.329334 1005.501 599.155455 1202.203 599.216797"></polyline>
                        <polyline id="Stroke-19" stroke="#C1C4CA" stroke-linecap="square" points="0.5 198.574686 675.5 198.784095 839.5 265.681945 1005.5 198.885627 1202.203 198.946969"></polyline>
                        <polyline id="Stroke-21" stroke="#C1C4CA" stroke-linecap="square" points="0.5 132.328014 675.5 132.537424 839.501 265.681628 1005.5 132.638956 1202.203 132.700298"></polyline>
                        <polyline id="Stroke-23" stroke="#C1C4CA" stroke-linecap="square" points="0.5 65.0237197 675.501 65.2320715 839.5 264.976934 1005.5 65.3346609 1202.203 65.3960031"></polyline>
                        <polyline id="Path-9" stroke="#C1C4CA" points="2 1.80449507 675.000743 1.80449507 839 265.152711 1008 0.631625 1205.0406 0.631625"></polyline>
                        <circle id="Oval-6" fill="#2B78EC" cx="839" cy="267" r="31"></circle>
                    </g>
                </g>
            </g>
        </g>
    </g>
</svg>