<svg width="20px" height="20px" viewBox="0 0 20 20" version="1.1" xmlns="http://www.w3.org/2000/svg" xmlns:xlink="http://www.w3.org/1999/xlink">
    <g id="Page-1" stroke="none" stroke-width="1" fill="none" fill-rule="evenodd">
        <path d="M10,0 C4.47785788,0 0,4.47785788 0,10 C0,15.523172 4.47785788,20 10,20 C15.523172,20 20,15.523172 20,10 C20,4.47785788 15.523172,0 10,0 Z M10.987978,5.70800854 C10.987978,5.05200854 10.491978,4.54000854 9.83597803,4.54000854 C9.14797803,4.54000854 8.63597803,5.05200854 8.63597803,5.70800854 C8.63597803,6.02800854 8.81197803,9.27600854 8.89197803,11.0520085 C8.90797803,11.5480085 9.30797803,11.9320085 9.80397803,11.9320085 C10.331978,11.9320085 10.731978,11.5480085 10.747978,11.0520085 C10.827978,9.27600854 10.987978,6.02800854 10.987978,5.70800854 Z M11.115978,14.1880085 C11.115978,13.4840085 10.523978,12.8920085 9.81997803,12.8920085 C9.11597803,12.8920085 8.53997803,13.4840085 8.53997803,14.1880085 C8.53997803,14.8760085 9.11597803,15.4680085 9.81997803,15.4680085 C10.523978,15.4680085 11.115978,14.8760085 11.115978,14.1880085 Z" id="Combined-Shape"></path>
    </g>
</svg>
