<svg id="Layer_1" data-name="Layer 1" xmlns="http://www.w3.org/2000/svg" viewBox="0 0 171 62"><defs><style>.cls-1{fill:#333436;}.cls-2{isolation:isolate;}</style></defs><title>Artboard 1</title><g id="Page-1"><g id="Desktop-HD-Copy-15"><g id="SIDEBAR"><g id="VTEX-LOGO"><polygon id="Shape" class="cls-1" points="160.61 1.27 170.76 1.29 150.99 14.44 162.42 24.54 151.87 24.62 145.1 18.32 130.56 27.98 119.8 27.98 140.4 14 129.42 4.41 139.91 4.43 146.18 10 160.61 1.27"/><polygon id="Shape-2" data-name="Shape" class="cls-1" points="0.01 4.43 11.32 4.42 22.38 14.78 33.72 4.43 40.76 4.42 45.29 9.85 38.39 9.85 22.24 25.58 0.01 4.43"/><path id="Shape-3" data-name="Shape" class="cls-1" d="M121.56,4.45V9.08H93.08v3.06h26.8V16L93.22,16c0,1,0,3.76,4.76,3.76h23.61v4.9H94.14c-5.1,0-9.32-2.41-9.32-6.25,0-4.26,0-14,0-14Z"/><polygon id="Shape-4" data-name="Shape" class="cls-1" points="43.99 4.41 81.94 4.43 81.95 9.86 67.94 9.86 67.91 24.63 58.74 24.63 58.73 9.85 49.19 9.85 43.99 4.41"/></g></g></g></g><g id="STYLEGUIDE" class="cls-2"><g class="cls-2"><path class="cls-1" d="M14.54,43.59a9.83,9.83,0,0,0-5.93-1.87c-3.12,0-5.47,1.48-5.47,4,0,1.92,1.3,3.25,4.72,3.61l2.31.25c3.35.36,5.42,1.64,5.42,4.46,0,3.44-3.15,5.08-7,5.08a11.91,11.91,0,0,1-6.86-2.19l.53-.76a11,11,0,0,0,6.33,2c3.38,0,6-1.3,6-4.09,0-2.22-1.62-3.29-4.8-3.62l-2.36-.25c-3.6-.39-5.29-2-5.29-4.47,0-3.18,2.84-5,6.47-5a10.48,10.48,0,0,1,6.41,2Z"/><path class="cls-1" d="M32.83,41.86H26V59h-1V41.86H18.26v-.92H32.83Z"/><path class="cls-1" d="M42.81,51v8h-1V51L34.54,40.95h1.16l6.63,9.15L49,40.95h1.12Z"/><path class="cls-1" d="M65.49,59h-12V40.95h1V58.08h11Z"/><path class="cls-1" d="M81.37,59H69.28V40.95h12v.9H70.24v7.61H81v.9H70.24V58.1H81.37Z"/><path class="cls-1" d="M101.78,44l-.71.67a8.07,8.07,0,0,0-6.28-2.91A8,8,0,0,0,86.64,50a7.94,7.94,0,0,0,8.11,8.25c4.5,0,7.43-3,7.57-7.68H95.59v-.9h7.76v.3c0,5.36-3.37,9.21-8.6,9.21A8.89,8.89,0,0,1,85.63,50a8.89,8.89,0,0,1,9.15-9.17A9.06,9.06,0,0,1,101.78,44Z"/><path class="cls-1" d="M122.24,52c0,4.73-3.2,7.13-7.13,7.13S108,56.74,108,52V40.95h1v11c0,4.2,2.71,6.27,6.18,6.27s6.16-2.06,6.16-6.27v-11h1Z"/><path class="cls-1" d="M129,59h-1V40.95h1Z"/><path class="cls-1" d="M141.31,40.95c6.2,0,10,3.43,10,9s-3.75,9-10,9H135V40.95Zm-5.35.92V58.08h5.35c5.74,0,9-3.11,9-8.11s-3.22-8.11-9-8.11Z"/><path class="cls-1" d="M168.25,59H156.17V40.95h12v.9H157.12v7.61h10.79v.9H157.12V58.1h11.13Z"/></g></g></svg>