<?xml version="1.0" encoding="UTF-8"?>
<svg width="305px" height="180px" viewBox="0 0 305 180" version="1.1" xmlns="http://www.w3.org/2000/svg" xmlns:xlink="http://www.w3.org/1999/xlink">
    <!-- Generator: Sketch 44.1 (41455) - http://www.bohemiancoding.com/sketch -->
    <title>Untitled</title>
    <desc>Created with Sketch.</desc>
    <defs></defs>
    <g id="Page-1" stroke="none" stroke-width="1" fill="none" fill-rule="evenodd">
        <g id="logo" fill-rule="nonzero" fill="#000000">
            <g id="Page-1">
                <g id="Artboard">
                    <g id="vtex-logo-black">
                        <path d="M220.35,41.34 L209.43,41.34 L209.43,78.72 C209.424558,79.4246582 208.854658,79.9945584 208.15,80 L199.74,80 C199.035342,79.9945584 198.465442,79.4246582 198.46,78.72 L198.46,41.34 L187.46,41.34 C187.126939,41.3535592 186.802636,41.2313586 186.561344,41.0013768 C186.320052,40.771395 186.182434,40.4533282 186.18,40.12 L186.18,33.5 C186.182434,33.1666718 186.320052,32.848605 186.561344,32.6186232 C186.802636,32.3886414 187.126939,32.2664408 187.46,32.28 L220.33,32.28 C221.039015,32.2459827 221.642298,32.7911719 221.68,33.5 L221.68,40.12 C221.642291,40.8207243 221.051369,41.3627732 220.35,41.34 Z" id="Shape"></path>
                        <path d="M255.37,79.75 C251.064912,80.3657808 246.718536,80.6466236 242.37,80.59 C234.08,80.59 226.76,78.47 226.76,66.78 L226.76,45.45 C226.76,33.76 234.15,31.71 242.43,31.71 C246.745039,31.6508892 251.058116,31.9283973 255.33,32.54 C256.23,32.67 256.61,32.99 256.61,33.82 L256.61,39.82 C256.604558,40.5246582 256.034658,41.0945584 255.33,41.1 L241.83,41.1 C238.83,41.1 237.72,42.1 237.72,45.47 L237.72,51.31 L254.86,51.31 C255.564658,51.3154416 256.134558,51.8853418 256.14,52.59 L256.14,58.69 C256.134558,59.3946582 255.564658,59.9645584 254.86,59.97 L237.72,59.97 L237.72,66.78 C237.72,70.12 238.81,71.15 241.83,71.15 L255.37,71.15 C256.074658,71.1554416 256.644558,71.7253418 256.65,72.43 L256.65,78.43 C256.66,79.23 256.27,79.62 255.37,79.75 Z" id="Shape"></path>
                        <path d="M303.83,80 L293.62,80 C292.907985,80.0528961 292.239543,79.6526319 291.95,79 L283.09,65 L275.09,78.74 C274.64,79.51 274.19,80.02 273.48,80.02 L264,80.02 C263.751694,80.0645194 263.496441,79.9964455 263.30328,79.8341903 C263.110119,79.671935 262.999008,79.4322637 263,79.18 C263.013093,79.0228688 263.057282,78.8699061 263.13,78.73 L277.06,55.54 L263,33.5 C262.927486,33.381618 262.883018,33.2482143 262.87,33.11 C262.917599,32.6036815 263.363065,32.2294895 263.87,32.27 L274.21,32.27 C274.92,32.27 275.43,32.91 275.82,33.49 L284.04,46.49 L292.04,33.49 C292.329916,32.8325425 292.938632,32.371279 293.65,32.27 L303.16,32.27 C303.666935,32.2294895 304.112401,32.6036815 304.16,33.11 C304.146982,33.2482143 304.102514,33.381618 304.03,33.5 L290.03,55.67 L304.6,78.67 C304.712594,78.8655039 304.777676,79.0847283 304.79,79.31 C304.67,79.75 304.34,80 303.83,80 Z" id="Shape"></path>
                        <path d="M170.8,32.41 C170.320307,32.3993264 169.900642,32.7308621 169.8,33.2 L160.47,67.72 C160.34,68.43 160.15,68.72 159.57,68.72 C158.99,68.72 158.8,68.46 158.67,67.72 L149.37,33.2 C149.269358,32.7308621 148.849693,32.3993264 148.37,32.41 L139.19,32.41 C138.881856,32.4024272 138.587439,32.5373825 138.39204,32.7757702 C138.19664,33.0141579 138.122095,33.3293363 138.19,33.63 C138.19,33.63 149.58,73.2 149.7,73.63 C151.22,78.35 154.91,80.63 159.6,80.63 C164.099558,80.7914525 168.15216,77.9259768 169.5,73.63 C169.68,73.09 180.82,33.63 180.82,33.63 C180.884345,33.3307998 180.80814,33.0186083 180.613178,32.7827041 C180.418216,32.5467999 180.125964,32.4131593 179.82,32.42 L170.8,32.41 Z" id="Shape"></path>
                        <path d="M118.77,0.32 L23.05,0.32 C19.5863153,0.351666779 16.3889012,2.1841531 14.6106802,5.15670157 C12.8324593,8.12925004 12.7299064,11.8131266 14.34,14.88 L23.92,33.12 L6.56,33.12 C4.34212938,33.0796434 2.26852073,34.2160272 1.10916104,36.1071813 C-0.050198645,37.9983354 -0.122159306,40.3618165 0.92,42.32 L31.72,100.52 C32.82523,102.610084 34.9956855,103.917585 37.36,103.917585 C39.7243145,103.917585 41.89477,102.610084 43,100.52 L51.36,84.75 L61.86,104.61 C63.5672111,107.834206 66.9167025,109.850719 70.565,109.850719 C74.2132975,109.850719 77.5627889,107.834206 79.27,104.61 L127.27,14.36 C128.859296,11.3894263 128.76395,7.80084814 127.019155,4.91885888 C125.274361,2.03686962 122.138857,0.288843161 118.77,0.32 L118.77,0.32 Z M76,38.45 L55,77.83 C54.2785005,79.1902007 52.8647101,80.0406475 51.325,80.0406475 C49.7852899,80.0406475 48.3714995,79.1902007 47.65,77.83 L26.92,38.83 C26.2804208,37.6297958 26.3177694,36.18196 27.018378,35.0163274 C27.7189867,33.8506948 28.9800187,33.1383594 30.34,33.14 L72.76,33.14 C74.0381403,33.1203257 75.2313827,33.778051 75.8971997,34.869251 C76.5630167,35.9604511 76.6021171,37.3223986 76,38.45 Z" id="Shape"></path>
                    </g>
                </g>
            </g>
            <g id="STYLEGUIDE" transform="translate(0.000000, 146.000000)">
                <g id="Group">
                    <path d="M23.5815476,5.462 C20.4548181,3.21462598 16.6771699,2.03351589 12.8157738,2.096 C7.1514881,2.096 2.88511905,4.76 2.88511905,9.296 C2.88511905,12.752 5.2452381,15.146 11.4541667,15.794 L15.6479167,16.244 C21.7297619,16.892 25.4877976,19.196 25.4877976,24.272 C25.4877976,30.464 19.7690476,33.416 12.7794643,33.416 C8.31727388,33.4076067 3.96698303,32.0306501 0.325297619,29.474 L1.2875,28.106 C4.65282229,30.4507486 8.66629249,31.7080178 12.7794643,31.706 C18.9157738,31.706 23.6723214,29.366 23.6723214,24.344 C23.6723214,20.348 20.73125,18.422 14.9580357,17.828 L10.6735119,17.378 C4.13779762,16.676 1.06964286,13.778 1.06964286,9.332 C1.06964286,3.608 6.22559524,0.332 12.8157738,0.332 C16.9880854,0.234065285 21.0771304,1.49902242 24.4529762,3.932 L23.5815476,5.462 Z" id="Shape"></path>
                    <polygon id="Shape" points="56.7866071 2.348 44.3869048 2.348 44.3869048 33.2 42.5714286 33.2 42.5714286 2.348 30.335119 2.348 30.335119 0.692 56.7866071 0.692"></polygon>
                    <polygon id="Shape" points="74.9050595 18.8 74.9050595 33.2 73.0895833 33.2 73.0895833 18.8 59.8910714 0.71 61.9970238 0.71 74.033631 17.18 86.1428571 0.71 88.1761905 0.71"></polygon>
                    <polygon id="Shape" points="116.08006 33.2 94.2943452 33.2 94.2943452 0.71 96.1098214 0.71 96.1098214 31.544 116.08006 31.544"></polygon>
                    <polygon id="Shape" points="144.909821 33.2 122.960714 33.2 122.960714 0.71 144.746429 0.71 144.746429 2.33 124.703571 2.33 124.703571 16.028 144.238095 16.028 144.238095 17.648 124.703571 17.648 124.703571 31.58 144.909821 31.58"></polygon>
                    <path d="M181.96369,6.2 L180.674702,7.406 C177.860744,4.05074278 173.674519,2.12748306 169.273512,2.168 C165.297837,2.09228149 161.464714,3.63602951 158.668451,6.43907178 C155.872187,9.24211404 154.357355,13.0592852 154.477381,17 C154.321135,20.9399141 155.813525,24.7687899 158.601423,27.5806386 C161.389322,30.3924874 165.225012,31.9374654 169.200893,31.85 C177.370536,31.85 182.689881,26.45 182.944048,18.026 L170.725893,18.026 L170.725893,16.406 L184.813988,16.406 L184.813988,16.946 C184.813988,26.594 178.695833,33.524 169.200893,33.524 C164.755624,33.6404633 160.458845,31.9333242 157.324794,28.8055472 C154.190743,25.6777702 152.497139,21.4065161 152.64375,17 C152.501516,12.5869129 154.204718,8.31167394 157.350238,5.18615072 C160.495759,2.0606275 164.804027,0.362614853 169.255357,0.494 C174.135502,0.43245864 178.791196,2.52285008 181.96369,6.2 Z" id="Shape"></path>
                    <path d="M219.108333,20.6 C219.108333,29.114 213.29881,33.434 206.163988,33.434 C199.029167,33.434 193.255952,29.132 193.255952,20.6 L193.255952,0.71 L195.071429,0.71 L195.071429,20.51 C195.071429,28.07 199.991369,31.796 206.291071,31.796 C212.590774,31.796 217.474405,28.088 217.474405,20.51 L217.474405,0.71 L219.289881,0.71 L219.108333,20.6 Z" id="Shape"></path>
                    <polygon id="Shape" points="231.380952 33.2 229.565476 33.2 229.565476 0.71 231.380952 0.71"></polygon>
                    <path d="M253.729464,0.71 C264.985417,0.71 271.884226,6.884 271.884226,16.91 C271.884226,26.936 265.07619,33.11 253.729464,33.11 L242.27381,33.11 L242.27381,0.71 L253.729464,0.71 Z M244.016667,2.366 L244.016667,31.544 L253.729464,31.544 C264.150298,31.544 270.06875,25.946 270.06875,16.946 C270.06875,7.946 264.222917,2.348 253.729464,2.348 L244.016667,2.366 Z" id="Shape"></path>
                    <polygon id="Shape" points="302.638393 33.2 280.70744 33.2 280.70744 0.71 302.493155 0.71 302.493155 2.33 282.432143 2.33 282.432143 16.028 302.021131 16.028 302.021131 17.648 282.432143 17.648 282.432143 31.58 302.638393 31.58"></polygon>
                </g>
            </g>
        </g>
    </g>
</svg>