<?xml version="1.0" encoding="UTF-8" standalone="no"?>
<svg width="171px" height="27px" viewBox="0 0 171 27" version="1.1" xmlns="http://www.w3.org/2000/svg" xmlns:xlink="http://www.w3.org/1999/xlink">
    <!-- Generator: Sketch 40.1 (33804) - http://www.bohemiancoding.com/sketch -->
    <title>Page-1</title>
    <desc>Created with Sketch.</desc>
    <defs></defs>
    <g id="Page-1" stroke="none" stroke-width="1" fill="none" fill-rule="evenodd">
        <g id="Desktop-HD-Copy-15" fill="#333436">
            <g>
                <g id="SIDEBAR">
                    <g id="VTEX-LOGO">
                        <polygon id="Shape" points="160.61 0.27 170.76 0.29 150.99 13.44 162.42 23.54 151.87 23.62 145.1 17.32 130.56 26.98 119.8 26.98 140.4 13 129.42 3.41 139.91 3.43 146.18 9"></polygon>
                        <polygon id="Shape-2" points="0.01 3.43 11.32 3.42 22.38 13.78 33.72 3.43 40.76 3.42 45.29 8.85 38.39 8.85 22.24 24.58"></polygon>
                        <path d="M121.56,3.45 L121.56,8.08 L93.08,8.08 L93.08,11.14 L119.88,11.14 L119.88,15 L93.22,15 C93.22,16 93.22,18.76 97.98,18.76 L121.59,18.76 L121.59,23.66 L94.14,23.66 C89.04,23.66 84.82,21.25 84.82,17.41 L84.82,3.41 L121.56,3.45 Z" id="Shape-3"></path>
                        <polygon id="Shape-4" points="43.99 3.41 81.94 3.43 81.95 8.86 67.94 8.86 67.91 23.63 58.74 23.63 58.73 8.85 49.19 8.85"></polygon>
                    </g>
                </g>
            </g>
        </g>
    </g>
</svg>