<?xml version="1.0" encoding="utf-8"?>
<!-- Generator: Adobe Illustrator 20.0.0, SVG Export Plug-In . SVG Version: 6.00 Build 0)  -->
<svg version="1.1" id="Layer_1" xmlns="http://www.w3.org/2000/svg" xmlns:xlink="http://www.w3.org/1999/xlink" x="0px" y="0px"
	 viewBox="0 0 1190 600" enable-background="new 0 0 1190 600" xml:space="preserve">
<title>03_TRUST</title>
<desc>Created with Sketch.</desc>
<g id="Page-1">
	<g id="Desktop-HD-Copy-15" transform="translate(-250.000000, -1550.000000)">
		<g id="PRINCIPLES" transform="translate(248.000000, 350.000000)">
			<g id="_x30_3_x5F_TRUST" transform="translate(2.000000, 1200.000000)">
				<rect id="Rectangle" y="0" fill="#FFFFFF" width="1190" height="600"/>
				<g id="Illustration_Trust" transform="translate(952.000000, 109.000000)">
					<path id="Fill-1-Copy" fill="#2B78EC" d="M54.2,138C24.1,139.1,0,164,0,194.6c0,30.3,23.6,55,53.3,56.6
						c-5.1-17.5-7.9-36-7.9-55.1C45.5,175.8,48.5,156.3,54.2,138"/>
					<path id="Fill-3-Copy" fill="#2B78EC" d="M53.9,137c0.7,0,1.4-0.1,2.1-0.1c31.1,0,56.2,25.4,56.2,56.7
						c0,31.3-25.2,56.7-56.2,56.7c-1,0-2,0-2.9-0.1c23.5,80.6,97.3,139.4,184.8,139.9V0C151.3,0.4,78.3,57.9,53.9,137"/>
				</g>
			</g>
		</g>
	</g>
</g>
</svg>
